<?xml version="1.0" encoding="UTF-8"?>
<svg version="1.1" xmlns="http://www.w3.org/2000/svg" width="100" height="100">
<path d="M0 0 C2.42578125 1.40234375 2.42578125 1.40234375 4 3 C4 3.66 4 4.32 4 5 C4.928125 5.0825 5.85625 5.165 6.8125 5.25 C10 6 10 6 11.8125 7.875 C14.70459189 13.05032232 14.22057554 18.2328061 14.25 24 C14.270625 25.010625 14.29125 26.02125 14.3125 27.0625 C14.32023437 28.5165625 14.32023437 28.5165625 14.328125 30 C14.34214355 31.3303125 14.34214355 31.3303125 14.35644531 32.6875 C13.92487184 35.48740677 13.08940102 36.17388167 11 38 C10.505 38.99 10.01 39.98 9.5 41 C8 44 8 44 6.39453125 45.41015625 C4.78033167 46.91376188 4.78033167 46.91376188 4.91796875 49.12109375 C5.00691406 49.88550781 5.09585938 50.64992187 5.1875 51.4375 C5.28125 53.83984375 5.28125 53.83984375 5 56 C2.05330329 58.61928596 -0.2866821 59.76222737 -4 61 C-1.69 63.31 0.62 65.62 3 68 C5.52349243 64.87567603 7.27256146 61.61939504 9 58 C17.43820641 59.20289325 25.46303018 61.37676262 31.5625 67.625 C34.32795606 72.19401437 34 74.20455127 34 80 C7.6 80 -18.8 80 -46 80 C-46 73.26042322 -45.92461817 70.93662662 -42 66 C-36.66026437 61.32773132 -28.14220377 58 -21 58 C-18.525 62.95 -18.525 62.95 -16 68 C-14.865625 67.030625 -13.73125 66.06125 -12.5625 65.0625 C-11.92441406 64.51722656 -11.28632812 63.97195312 -10.62890625 63.41015625 C-9.73008851 62.63204305 -8.84063472 61.84063472 -8 61 C-8.56589844 60.75765625 -9.13179687 60.5153125 -9.71484375 60.265625 C-10.44832031 59.93046875 -11.18179688 59.5953125 -11.9375 59.25 C-12.66839844 58.92515625 -13.39929687 58.6003125 -14.15234375 58.265625 C-16 57 -16 57 -16.76953125 55.0390625 C-17 53 -17 53 -16.75 50.125 C-17.09567998 45.80400029 -19.12047001 44.14739324 -22 41 C-23.0268343 39.3497306 -24.03567924 37.68756133 -25 36 C-25.495 35.505 -25.495 35.505 -26 35 C-26.33813817 31.32199834 -26.32526723 27.62902813 -26.375 23.9375 C-26.41238281 22.91205078 -26.44976563 21.88660156 -26.48828125 20.83007812 C-26.56777154 13.92767145 -25.58932974 9.28416131 -21 4 C-14.93973072 -1.15767598 -7.70067019 -1.04113811 0 0 Z " fill="#ABB4BC" transform="translate(56,10)"/>
</svg>
