<svg width="17" height="17" viewBox="0 0 17 17" fill="none" xmlns="http://www.w3.org/2000/svg">
<path d="M2.42308 16.0834C2.00211 16.0834 1.64579 15.9375 1.35413 15.6459C1.06246 15.3542 0.916626 14.9979 0.916626 14.5769V3.42314C0.916626 3.00217 1.06246 2.64585 1.35413 2.35419C1.64579 2.06252 2.00211 1.91669 2.42308 1.91669H9.63621L8.38621 3.16669H2.42308C2.35892 3.16669 2.30017 3.19342 2.24683 3.24689C2.19336 3.30023 2.16663 3.35898 2.16663 3.42314V14.5769C2.16663 14.6411 2.19336 14.6998 2.24683 14.7531C2.30017 14.8066 2.35892 14.8334 2.42308 14.8334H13.5768C13.641 14.8334 13.6998 14.8066 13.7531 14.7531C13.8066 14.6998 13.8333 14.6411 13.8333 14.5769V8.56085L15.0833 7.31085V14.5769C15.0833 14.9979 14.9375 15.3542 14.6458 15.6459C14.3541 15.9375 13.9978 16.0834 13.5768 16.0834H2.42308ZM5.91663 11.0834V8.22273L13.4664 0.673144C13.5956 0.543838 13.7377 0.449533 13.8927 0.390227C14.0475 0.330921 14.2051 0.30127 14.3654 0.30127C14.5288 0.30127 14.6859 0.330921 14.8364 0.390227C14.9871 0.449533 15.1244 0.54113 15.2483 0.665019L16.2948 1.70835C16.4154 1.83766 16.5082 1.9803 16.5729 2.13627C16.6375 2.29224 16.6698 2.45037 16.6698 2.61064C16.6698 2.77092 16.6423 2.92634 16.5873 3.07689C16.5323 3.22759 16.4401 3.36752 16.3108 3.49669L8.73704 11.0834H5.91663ZM7.16663 9.83335H8.20517L13.3989 4.63939L12.8798 4.12023L12.3237 3.58502L7.16663 8.7421V9.83335Z" fill="#0E0031"/>
</svg>
