<?xml version="1.0" encoding="UTF-8"?>
<svg version="1.1" xmlns="http://www.w3.org/2000/svg" width="100" height="100">
<path d="M0 0 C0.63687744 0.2487085 1.27375488 0.49741699 1.92993164 0.75366211 C19.31339775 7.27149037 30.95536663 7.49206652 48 0 C47.87431641 1.68416016 47.87431641 1.68416016 47.74609375 3.40234375 C47.64154822 4.91394718 47.53880134 6.42567569 47.4375 7.9375 C47.38360107 8.7207666 47.32970215 9.5040332 47.27416992 10.31103516 C47.03245585 14.32791396 46.98341045 17.91137013 47.8125 21.875 C48.73406814 27.61794295 45.09527134 32.41586396 42 37 C41.34 37.66 40.68 38.32 40 39 C39.75712511 41.44012949 39.75712511 41.44012949 39.875 44.125 C39.89304688 45.03507812 39.91109375 45.94515625 39.9296875 46.8828125 C39.95289063 47.58148438 39.97609375 48.28015625 40 49 C40.78238037 49.2266333 41.56476074 49.4532666 42.37084961 49.68676758 C45.89693801 50.71592053 49.41714191 51.76392177 52.9375 52.8125 C54.16919922 53.16892578 55.40089844 53.52535156 56.66992188 53.89257812 C57.83974609 54.24384766 59.00957031 54.59511719 60.21484375 54.95703125 C61.29886475 55.27647705 62.38288574 55.59592285 63.49975586 55.92504883 C64.32483643 56.27978271 65.14991699 56.6345166 66 57 C67 60 67 60 65.6875 63.625 C64 67 64 67 62 68 C59.61078205 68.11346921 57.25000391 68.16778361 54.85986328 68.17700195 C54.12472504 68.18357315 53.38958679 68.19014435 52.63217163 68.19691467 C50.19488427 68.2166557 47.7576585 68.2283112 45.3203125 68.23828125 C44.07284052 68.24439454 44.07284052 68.24439454 42.80016708 68.25063133 C38.39949542 68.27149421 33.99885497 68.2857957 29.59814453 68.29516602 C25.04934601 68.30623884 20.50103555 68.34064781 15.95240974 68.38033772 C12.45741862 68.40646068 8.96254462 68.41485392 5.46746445 68.41844749 C3.79050266 68.42332366 2.11354646 68.43496691 0.43667984 68.45348549 C-1.90963389 68.47778908 -4.25467362 68.47692881 -6.60107422 68.4699707 C-7.29420715 68.48278076 -7.98734009 68.49559082 -8.70147705 68.50878906 C-12.01912022 68.47291041 -13.73804803 68.19804506 -16.41555786 66.17375183 C-18.3817351 63.4762842 -18.70090716 61.29002119 -19 58 C-13.06104015 55.71102589 -7.07663097 53.70269627 -1 51.8125 C-0.12988281 51.53986328 0.74023438 51.26722656 1.63671875 50.98632812 C3.75719733 50.32222219 5.87828792 49.66015226 8 49 C8.84479296 41.16810479 7.4301541 37.64517398 2.62890625 31.4375 C-1.08903926 25.87395564 -0.10134941 19.85472166 0.796875 13.53686523 C1.02512048 10.68626571 0.82114006 8.0544179 0.53125 5.2109375 C0.43392578 4.2317334 0.33660156 3.2525293 0.23632812 2.24365234 C0.15833984 1.50324707 0.08035156 0.7628418 0 0 Z M7 14 C6.80533668 15.79090253 6.61948787 17.58276505 6.4375 19.375 C6.33308594 20.37273438 6.22867188 21.37046875 6.12109375 22.3984375 C5.78855292 24.984037 5.78855292 24.984037 7 27 C7.66 27 8.32 27 9 27 C9.07476562 27.71800781 9.14953125 28.43601562 9.2265625 29.17578125 C10.20600566 32.75223277 11.8532007 34.4902357 14.375 37.1875 C15.16648437 38.04730469 15.95796875 38.90710938 16.7734375 39.79296875 C18.99203218 42.1332064 18.99203218 42.1332064 22 44 C27.8187939 43.57970189 31.08793172 39.99373985 35 36 C37.43674796 33.06096973 39 30.94892278 39 27 C39.66 27 40.32 27 41 27 C42.0161692 22.37078475 41.83796731 18.65537393 41 14 C39.865625 14.32484375 38.73125 14.6496875 37.5625 14.984375 C32.9961858 16.12193391 28.6875537 16.29799543 24 16.25 C23.24460937 16.25773437 22.48921875 16.26546875 21.7109375 16.2734375 C16.5024251 16.25553883 12.00723853 15.43389103 7 14 Z M15 46 C13.79727181 48.40545638 13.89928528 49.94996953 13.9375 52.625 C13.94652344 53.44226563 13.95554688 54.25953125 13.96484375 55.1015625 C13.97644531 55.72804688 13.98804688 56.35453125 14 57 C17.3957123 59.05701803 20.0617659 59.26969117 24 59.25 C25.03125 59.25515625 26.0625 59.2603125 27.125 59.265625 C29.94597278 59.00499165 31.60145718 58.45296344 34 57 C34.05399736 55.54207116 34.09279177 54.08357288 34.125 52.625 C34.14820312 51.81289062 34.17140625 51.00078125 34.1953125 50.1640625 C34.21370051 47.78657757 34.21370051 47.78657757 32 46 C31.01 46.66 30.02 47.32 29 48 C26.66015625 48.265625 26.66015625 48.265625 24.0625 48.25 C23.20785156 48.25515625 22.35320313 48.2603125 21.47265625 48.265625 C18.88025433 47.98713633 17.23485766 47.30669172 15 46 Z " fill="#ACB5BD" transform="translate(26,23)"/>
<path d="M0 0 C1.23492187 0.27328125 2.46984375 0.5465625 3.7421875 0.828125 C12.86049107 2.86774554 12.86049107 2.86774554 15.125 4 C14.55053711 6.80639648 14.55053711 6.80639648 13.125 10 C10.75116281 11.38026412 8.87238152 12.2430189 6.31640625 13.09765625 C5.29437355 13.46182899 5.29437355 13.46182899 4.25169373 13.83335876 C2.80741711 14.33986617 1.35882421 14.83420797 -0.09350586 15.31713867 C-2.28863266 16.05448295 -4.45776992 16.84686058 -6.63085938 17.64648438 C-15.18111966 20.6544476 -21.28583284 21.59524322 -29.875 18 C-31.39511057 17.52275783 -32.91974911 17.05962062 -34.44921875 16.61328125 C-35.82097552 16.18178968 -37.19208722 15.74824124 -38.5625 15.3125 C-39.63274414 14.97508789 -39.63274414 14.97508789 -40.72460938 14.63085938 C-42.44200398 14.08913088 -44.15859514 13.54485625 -45.875 13 C-45.875 15.64 -45.875 18.28 -45.875 21 C-47.855 20.67 -49.835 20.34 -51.875 20 C-51.875 16.7 -51.875 13.4 -51.875 10 C-52.865 10 -53.855 10 -54.875 10 C-55.205 8.02 -55.535 6.04 -55.875 4 C-51.34305612 2.83922963 -46.80623603 1.70096865 -42.26269531 0.58642578 C-40.66753464 0.1946491 -39.07313088 -0.20022211 -37.47949219 -0.59814453 C-35.11461884 -1.18429735 -32.74572292 -1.75052876 -30.375 -2.3125 C-29.64684082 -2.49586914 -28.91868164 -2.67923828 -28.16845703 -2.86816406 C-18.56388792 -5.0932116 -9.42110551 -2.12475997 0 0 Z " fill="#ABB4BC" transform="translate(69.875,8)"/>
<path d="M0 0 C1.2065625 0.0309375 1.2065625 0.0309375 2.4375 0.0625 C2.7675 3.0325 3.0975 6.0025 3.4375 9.0625 C0.7975 9.0625 -1.8425 9.0625 -4.5625 9.0625 C-3.56521739 0.08695652 -3.56521739 0.08695652 0 0 Z " fill="#AAB4BD" transform="translate(21.5625,30.9375)"/>
</svg>
